<svg width="48" height="48" viewBox="0 0 48 48" fill="none" xmlns="http://www.w3.org/2000/svg">
<path d="M11.976 22.552C11.368 22.664 10.576 22.72 9.6 22.72C8.928 22.72 8.44 22.728 8.136 22.744L8.064 22.24C7.872 22.24 7.736 22.248 7.656 22.264C7.544 21.416 7.472 20.192 7.44 18.592C7.408 17.424 7.368 16.56 7.32 16C6.968 15.968 6.752 15.952 6.672 15.952C6.208 15.952 5.784 15.992 5.4 16.072C5.384 16.312 5.376 16.704 5.376 17.248L5.4 18.688C5.416 19.008 5.424 19.48 5.424 20.104C5.424 21.112 5.368 21.896 5.256 22.456C4.968 22.632 4.576 22.72 4.08 22.72C3.888 22.72 3.6 22.704 3.216 22.672C2.832 22.64 2.576 22.624 2.448 22.624C2.16 22.624 1.864 22.704 1.56 22.864L1.512 22.192C1.368 22.224 1.224 22.288 1.08 22.384C0.984 21.248 0.896 19.168 0.816 16.144C0.736 13.104 0.696 10.328 0.696 7.816C0.696 6.456 0.704 5.52 0.72 5.008L1.08 4.984C1.304 5.032 1.52 5.056 1.728 5.056C1.888 5.056 2.16 5.04 2.544 5.008C2.992 4.976 3.344 4.96 3.6 4.96C3.792 4.96 3.952 5 4.08 5.08C4.208 5.144 4.296 5.28 4.344 5.488C4.44 5.504 4.52 5.52 4.584 5.536C4.664 5.552 4.728 5.568 4.776 5.584C4.84 6.144 4.888 6.96 4.92 8.032C4.984 9.552 5.088 10.696 5.232 11.464H5.496C5.992 11.464 6.44 11.432 6.84 11.368H7.008C7.104 10.216 7.152 9.08 7.152 7.96C7.152 6.712 7.128 5.768 7.08 5.128C7.848 4.904 8.768 4.792 9.84 4.792H10.176C10.432 4.792 10.656 4.808 10.848 4.84V5.296C11.04 5.296 11.2 5.304 11.328 5.32L11.976 22.552ZM10.608 5.056C10.432 5.04 10.176 5.032 9.84 5.032C8.8 5.032 7.96 5.128 7.32 5.32C7.368 6.28 7.392 7.168 7.392 7.984C7.392 9.152 7.336 10.352 7.224 11.584H7.2C6.64 11.664 6.088 11.704 5.544 11.704C5.16 11.704 4.848 11.672 4.608 11.608H4.584C4.44 10.856 4.336 9.72 4.272 8.2C4.24 7.08 4.176 6.112 4.08 5.296C3.872 5.232 3.584 5.2 3.216 5.2L2.568 5.224L1.776 5.272L1.56 5.296C1.384 5.296 1.208 5.272 1.032 5.224L0.96 5.248C0.944 5.76 0.936 6.616 0.936 7.816C0.936 10.36 0.968 13.072 1.032 15.952C1.112 18.832 1.2 20.84 1.296 21.976C1.408 21.912 1.584 21.88 1.824 21.88C2.016 21.88 2.304 21.896 2.688 21.928C3.024 21.976 3.344 22 3.648 22C3.872 22 4.048 21.992 4.176 21.976C4.32 21.96 4.448 21.912 4.56 21.832C4.64 21.272 4.68 20.584 4.68 19.768C4.68 19.144 4.672 18.672 4.656 18.352L4.632 16.96C4.632 16.448 4.656 15.928 4.704 15.4C5.136 15.288 5.624 15.232 6.168 15.232C6.536 15.232 6.976 15.272 7.488 15.352L7.512 15.376C7.592 16.032 7.648 17.072 7.68 18.496C7.68 19.968 7.744 21.136 7.872 22H7.896C8.024 21.984 8.256 21.976 8.592 21.976H9.456C10.192 21.976 10.792 21.936 11.256 21.856L10.608 5.056Z" fill="black"/>
<path d="M14.864 10.96C15.104 10.448 15.576 10.064 16.28 9.808C17 9.552 17.808 9.424 18.704 9.424C18.832 9.44 19.128 9.448 19.592 9.448L20.168 9.424C20.776 9.424 21.368 9.52 21.944 9.712C22.52 9.904 23 10.184 23.384 10.552H23.36C23.408 10.616 23.48 10.704 23.576 10.816C23.672 10.912 23.76 10.984 23.84 11.032L23.816 11.008C24.248 11.296 24.536 11.872 24.68 12.736C24.84 13.6 24.92 14.672 24.92 15.952C24.92 17.088 24.848 18.264 24.704 19.48C24.56 20.696 24.36 21.448 24.104 21.736C23.768 22.216 23.312 22.544 22.736 22.72C22.16 22.896 21.488 22.984 20.72 22.984C19.904 22.984 19.24 22.96 18.728 22.912C18.232 22.864 17.736 22.728 17.24 22.504C16.76 22.296 16.296 21.96 15.848 21.496L15.632 21.28C15.136 20.816 14.8 20.224 14.624 19.504C14.448 18.768 14.36 17.912 14.36 16.936V16.072L14.384 15.256C14.384 15.064 14.376 14.88 14.36 14.704C14.344 14.528 14.336 14.368 14.336 14.224C14.336 13.536 14.352 13.016 14.384 12.664C14.416 12.312 14.536 11.888 14.744 11.392H14.72C14.736 11.296 14.752 11.2 14.768 11.104C14.8 11.008 14.832 10.944 14.864 10.912V10.936L14.84 11.008L14.864 10.96ZM14.6 15.208V16.984C14.6 18.392 14.832 19.56 15.296 20.488C15.776 21.4 16.632 21.96 17.864 22.168L18.992 22.192C19.536 22.224 19.96 22.24 20.264 22.24C21.016 22.24 21.656 22.16 22.184 22C22.712 21.84 23.128 21.544 23.432 21.112C23.704 20.84 23.88 20.232 23.96 19.288C24.056 18.344 24.136 17.072 24.2 15.472C24.2 15.328 24.184 14.816 24.152 13.936C24.12 13.04 24.024 12.328 23.864 11.8C23.72 11.256 23.504 10.896 23.216 10.72C22.496 10.016 21.448 9.664 20.072 9.664L19.16 9.688C18.952 9.688 18.792 9.68 18.68 9.664C17.864 9.664 17.112 9.784 16.424 10.024C15.736 10.264 15.288 10.608 15.08 11.056C14.904 11.68 14.776 12.232 14.696 12.712C14.616 13.192 14.576 13.688 14.576 14.2L14.6 15.208ZM19.52 13.288C20.64 13.288 21.2 14.12 21.2 15.784C21.2 16.472 21.168 17.024 21.104 17.44C21.04 17.84 20.872 18.168 20.6 18.424C20.328 18.68 19.912 18.808 19.352 18.808C18.872 18.808 18.48 18.704 18.176 18.496C17.872 18.288 17.72 17.952 17.72 17.488C17.736 17.28 17.744 16.912 17.744 16.384C17.744 15.648 17.76 15.08 17.792 14.68C17.84 14.264 17.936 14 18.08 13.888C18.4 13.488 18.88 13.288 19.52 13.288ZM18.704 14.56C18.576 14.64 18.496 15.008 18.464 15.664C18.448 16.304 18.44 17.08 18.44 17.992C18.44 18.248 18.52 18.408 18.68 18.472C18.84 18.536 19.064 18.568 19.352 18.568C20.328 18.568 20.816 18.232 20.816 17.56C20.912 16.696 20.96 16.072 20.96 15.688C20.96 15.16 20.896 14.752 20.768 14.464C20.656 14.176 20.384 14.032 19.952 14.032C19.856 14.032 19.68 14.048 19.424 14.08H19.448C19.144 14.16 18.912 14.304 18.752 14.512L18.704 14.56ZM29.1978 4.864H29.6778C29.6778 5.6 29.6618 7.296 29.6298 9.952C29.6138 10.736 29.5978 11.768 29.5818 13.048C29.5658 14.328 29.5578 15.824 29.5578 17.536C29.5578 19.744 29.5898 21.368 29.6538 22.408C29.5258 22.536 29.3498 22.624 29.1258 22.672C28.9018 22.72 28.6138 22.744 28.2618 22.744C27.7978 22.744 27.4458 22.736 27.2058 22.72H27.2298L26.6538 22.696C26.3018 22.696 26.0058 22.736 25.7658 22.816L25.7898 22.24C25.5978 22.24 25.4298 22.272 25.2858 22.336C25.3978 20.768 25.4538 19.32 25.4538 17.992C25.4538 17.016 25.4218 15.52 25.3578 13.504C25.2938 11.52 25.2618 10.008 25.2618 8.968C25.2618 7.288 25.3338 5.736 25.4778 4.312L29.1978 4.384V4.864ZM25.6938 4.552C25.5498 6.088 25.4778 7.616 25.4778 9.136C25.4778 10.512 25.5178 12.024 25.5978 13.672C25.6618 15.688 25.6938 17.184 25.6938 18.16C25.6938 19.44 25.6458 20.72 25.5498 22C25.5818 21.984 25.7098 21.976 25.9338 21.976C26.2698 21.976 26.5418 21.984 26.7498 22L27.8298 22.024C28.1818 22.024 28.4378 22.016 28.5978 22C28.7738 21.984 28.8858 21.936 28.9338 21.856C28.8858 21.072 28.8618 19.464 28.8618 17.032C28.8618 15.192 28.8778 12.672 28.9098 9.472L28.9578 4.624L25.6938 4.552ZM34.0471 5.008H34.5271L34.5511 6.304C34.5831 7.232 34.5991 7.928 34.5991 8.392C34.4231 8.664 34.0391 8.8 33.4471 8.8C33.3031 8.8 32.9911 8.784 32.5111 8.752H32.5351L31.7191 8.728C31.3991 8.728 31.1191 8.736 30.8791 8.752V8.248L30.3991 8.272C30.3991 7.968 30.3831 7.512 30.3511 6.904C30.3191 6.168 30.3031 5.52 30.3031 4.96V4.456L34.0471 4.528V5.008ZM30.5431 5.08C30.5431 5.576 30.5591 6.16 30.5911 6.832C30.6231 7.376 30.6391 7.768 30.6391 8.008H31.0471C31.2871 8.008 31.6311 8.024 32.0791 8.056L32.9431 8.08C33.4711 8.08 33.7831 8 33.8791 7.84C33.8791 7.328 33.8631 6.624 33.8311 5.728C33.8151 5.44 33.8071 5.12 33.8071 4.768L30.5431 4.696V5.08ZM34.1431 10.216L34.6231 10.288C34.6231 11.2 34.6071 12.584 34.5751 14.44C34.5271 15.832 34.5031 17.256 34.5031 18.712C34.5031 20.136 34.5351 21.368 34.5991 22.408C34.4711 22.536 34.2951 22.624 34.0711 22.672C33.8471 22.72 33.5591 22.744 33.2071 22.744C32.7431 22.744 32.3911 22.736 32.1511 22.72H32.1751L31.5991 22.696C31.2471 22.696 30.9511 22.736 30.7111 22.816C30.7111 22.704 30.7271 22.504 30.7591 22.216C30.5191 22.248 30.3431 22.288 30.2311 22.336C30.3111 21.264 30.3511 20.16 30.3511 19.024C30.3511 18.384 30.3351 17.424 30.3031 16.144C30.2711 14.864 30.2551 13.888 30.2551 13.216C30.2551 12.096 30.3111 10.92 30.4231 9.688C30.5351 9.688 30.6151 9.68 30.6631 9.664L31.0471 9.616C31.1751 9.616 31.4151 9.632 31.7671 9.664C32.1351 9.68 32.5271 9.688 32.9431 9.688H33.4951L34.1431 9.808V10.216ZM32.9431 9.928C32.4151 9.928 31.9111 9.912 31.4311 9.88L30.7351 9.856H30.6391V9.88C30.5431 10.728 30.4951 11.824 30.4951 13.168C30.4951 13.776 30.5111 14.736 30.5431 16.048C30.5751 17.36 30.5911 18.36 30.5911 19.048C30.5911 20.136 30.5591 21.12 30.4951 22C30.5271 21.984 30.6551 21.976 30.8791 21.976C31.2151 21.976 31.4871 21.984 31.6951 22L32.7751 22.024C33.1271 22.024 33.3831 22.016 33.5431 22C33.7191 21.984 33.8311 21.936 33.8791 21.856C33.8151 20.72 33.7831 19.432 33.7831 17.992C33.7831 16.424 33.8071 14.872 33.8551 13.336C33.8871 11.832 33.9031 10.72 33.9031 10V9.928H32.9431Z" fill="black"/>
<path d="M25.256 34.504C25.288 34.76 25.304 34.96 25.304 35.104V35.344C25.288 35.776 25.28 36.4 25.28 37.216L25.304 39.904C25.32 40.512 25.328 41.416 25.328 42.616C25.328 43.56 25.304 44.528 25.256 45.52V45.688C25.256 46.024 25.232 46.272 25.184 46.432C25.136 46.592 24.992 46.696 24.752 46.744H24.416C24.192 46.744 23.904 46.728 23.552 46.696L22.856 46.672C22.744 46.672 22.576 46.688 22.352 46.72L21.824 46.744C21.568 46.68 21.4 46.52 21.32 46.264C21.112 46.184 20.984 46.096 20.936 46C20.104 46.512 19.28 46.768 18.464 46.768C17.616 46.768 16.864 46.4 16.208 45.664C15.568 44.928 15.072 44.008 14.72 42.904C14.384 41.784 14.216 40.688 14.216 39.616C14.216 38.4 14.424 37.36 14.84 36.496C15.256 35.616 15.824 34.952 16.544 34.504C17.28 34.056 18.104 33.832 19.016 33.832C19.464 33.832 19.808 33.864 20.048 33.928C20.304 33.992 20.536 34.152 20.744 34.408C20.76 34.328 20.776 34.2 20.792 34.024C20.808 33.848 20.848 33.736 20.912 33.688C20.976 33.64 21.08 33.616 21.224 33.616C21.368 33.616 21.496 33.632 21.608 33.664C21.736 33.68 21.856 33.688 21.968 33.688H22.184C22.6 33.688 23.392 33.728 24.56 33.808L24.776 34.024L24.8 34.288H25.04L25.256 34.504ZM21.92 33.928L21.272 33.904C21.112 33.904 21.016 34.008 20.984 34.216C20.952 34.408 20.936 34.688 20.936 35.056V35.176C20.792 34.824 20.608 34.568 20.384 34.408C20.16 34.248 19.912 34.152 19.64 34.12C19.368 34.088 18.984 34.072 18.488 34.072C17.736 34.088 17.048 34.344 16.424 34.84C15.816 35.32 15.336 35.976 14.984 36.808C14.632 37.64 14.456 38.576 14.456 39.616C14.456 40.56 14.584 41.528 14.84 42.52C15.096 43.512 15.488 44.352 16.016 45.04C16.56 45.712 17.216 46.048 17.984 46.048C18.528 46.048 19.088 45.92 19.664 45.664C20.256 45.392 20.752 45.056 21.152 44.656C21.152 44.752 21.136 44.888 21.104 45.064C21.072 45.224 21.056 45.368 21.056 45.496C21.056 45.768 21.152 45.944 21.344 46.024C21.472 46.024 21.648 46.008 21.872 45.976L22.376 45.952L23.168 45.976C23.52 46.008 23.776 46.024 23.936 46.024H24.224C24.352 45.992 24.432 45.928 24.464 45.832C24.512 45.72 24.536 45.568 24.536 45.376V45.04C24.6 44.096 24.632 43.048 24.632 41.896L24.608 39.256C24.576 38.072 24.56 37.176 24.56 36.568C24.56 35.816 24.568 35.248 24.584 34.864V34.624C24.584 34.496 24.568 34.304 24.536 34.048C24.088 34.016 23.304 33.976 22.184 33.928H21.92ZM19.784 37.288C20.184 37.288 20.464 37.328 20.624 37.408C20.8 37.472 20.912 37.624 20.96 37.864C21.008 38.088 21.032 38.472 21.032 39.016V40.336C21.032 40.912 21 41.36 20.936 41.68C20.888 42 20.752 42.248 20.528 42.424C20.32 42.6 19.992 42.688 19.544 42.688C18.888 42.688 18.368 42.44 17.984 41.944C17.6 41.448 17.408 40.832 17.408 40.096C17.408 39.568 17.456 39.144 17.552 38.824C17.648 38.392 17.888 38.032 18.272 37.744C18.656 37.44 19.16 37.288 19.784 37.288ZM18.272 39.376C18.176 39.696 18.128 40.096 18.128 40.576C18.128 41.824 18.6 42.448 19.544 42.448C19.944 42.448 20.232 42.36 20.408 42.184C20.584 42.008 20.688 41.768 20.72 41.464C20.768 41.16 20.792 40.696 20.792 40.072V39.448L20.816 38.728C20.816 38.472 20.776 38.288 20.696 38.176C20.632 38.064 20.488 38.008 20.264 38.008C19.704 38.008 19.256 38.136 18.92 38.392C18.584 38.648 18.368 38.968 18.272 39.352V39.376ZM36.5261 35.776C36.5101 36 36.5021 36.328 36.5021 36.76C36.5021 37.144 36.5261 37.504 36.5741 37.84C36.2541 38.176 35.2781 39.136 33.6461 40.72L31.9901 42.352C32.1341 42.368 32.3421 42.376 32.6141 42.376H33.5261C34.4541 42.376 35.2621 42.328 35.9501 42.232V42.784L36.4301 42.712C36.4301 43.544 36.4381 44.176 36.4541 44.608L36.4781 46.552C32.5101 46.648 29.0861 46.696 26.2061 46.696L26.2301 46.216H25.7261L25.7741 45.16C25.7741 44.776 25.7581 44.376 25.7261 43.96C25.6941 43.64 25.6781 43.392 25.6781 43.216C25.6781 42.864 25.9021 42.44 26.3501 41.944C26.8141 41.448 27.4221 40.864 28.1741 40.192L28.7021 39.712L29.2781 39.16C29.9181 38.552 30.3021 38.184 30.4301 38.056C28.4301 38.184 27.0701 38.304 26.3501 38.416C26.3181 38.192 26.3021 38.016 26.3021 37.888L25.8701 37.936C25.8221 37.168 25.7981 36.76 25.7981 36.712C25.7981 36.488 25.8141 36.184 25.8461 35.8L25.8701 34.912L25.8461 33.832L30.0941 33.808H32.8301C32.9901 33.84 33.1501 33.856 33.3101 33.856C33.6781 33.856 33.9661 33.848 34.1741 33.832L35.1341 33.808H35.5421C35.7501 33.808 35.8781 33.824 35.9261 33.856L36.0701 34.072V34.288C36.1661 34.288 36.2781 34.304 36.4061 34.336L36.5501 34.552L36.5261 35.776ZM35.3501 34.048C34.9501 34.048 34.6301 34.056 34.3901 34.072L33.3581 34.096C33.1821 34.096 32.9821 34.08 32.7581 34.048L26.0861 34.072L26.1101 34.72L26.0861 35.584C26.0541 36 26.0381 36.328 26.0381 36.568C26.0381 36.696 26.0541 37.064 26.0861 37.672C27.1741 37.528 28.9581 37.4 31.4381 37.288C31.1021 37.688 30.7021 38.12 30.2381 38.584C29.7741 39.032 29.3101 39.472 28.8461 39.904C27.5181 41.136 26.5501 42.136 25.9421 42.904C25.9261 43.016 25.9181 43.16 25.9181 43.336C25.9181 43.464 25.9341 43.688 25.9661 44.008C25.9981 44.424 26.0141 44.816 26.0141 45.184L25.9901 45.976C28.5661 45.976 31.8221 45.928 35.7581 45.832L35.7341 44.08C35.7181 43.712 35.7101 43.184 35.7101 42.496C35.0221 42.592 34.3181 42.64 33.5981 42.64L31.6541 42.616C31.1261 42.616 30.7421 42.624 30.5021 42.64C31.1901 41.872 32.1581 40.896 33.4061 39.712C34.5261 38.624 35.3341 37.816 35.8301 37.288C35.7981 37.144 35.7821 36.936 35.7821 36.664C35.7821 36.152 35.7901 35.768 35.8061 35.512L35.8301 34.072C35.7981 34.056 35.6381 34.048 35.3501 34.048ZM40.8234 41.152C40.8234 41.568 40.8474 41.912 40.8954 42.184C40.9594 42.44 41.0794 42.72 41.2554 43.024V43.072C41.4634 43.184 41.7194 43.24 42.0234 43.24C42.3594 43.24 42.6394 43.088 42.8634 42.784C43.0874 42.464 43.1994 41.992 43.1994 41.368V41.128C43.5514 41.16 43.8154 41.176 43.9914 41.176L44.8314 41.152C45.0074 41.136 45.2794 41.128 45.6474 41.128C45.9194 41.128 46.2794 41.168 46.7274 41.248L46.7034 41.656L47.2074 41.728C47.2074 43.456 47.0154 44.696 46.6314 45.448C46.2634 46.2 45.7834 46.648 45.1914 46.792C44.6154 46.952 43.7274 47.032 42.5274 47.032C41.5674 47.032 40.7994 46.96 40.2234 46.816C39.6634 46.688 39.1834 46.384 38.7834 45.904C38.0474 45.296 37.5034 44.424 37.1514 43.288C36.7994 42.152 36.6234 40.92 36.6234 39.592C36.6234 38.04 36.8074 36.768 37.1754 35.776C37.5114 35.008 38.0954 34.424 38.9274 34.024C39.7594 33.608 40.6874 33.4 41.7114 33.4C42.9434 33.4 43.9754 33.664 44.8074 34.192C45.6554 34.72 46.2794 35.432 46.6794 36.328C47.0954 37.208 47.3034 38.176 47.3034 39.232C47.3034 39.328 47.2794 39.736 47.2314 40.456C46.9274 40.536 46.1194 40.608 44.8074 40.672C43.5114 40.736 42.3594 40.768 41.3514 40.768C41.1114 40.768 40.9354 40.76 40.8234 40.744V41.152ZM40.1034 39.976C40.2954 40.024 40.8474 40.048 41.7594 40.048C42.6394 40.048 43.5914 40.024 44.6154 39.976C45.6394 39.912 46.2794 39.848 46.5354 39.784C46.5674 39.304 46.5834 38.96 46.5834 38.752C46.5834 37.152 46.2234 35.904 45.5034 35.008C44.7994 34.096 43.5354 33.64 41.7114 33.64C40.7514 33.64 39.8634 33.84 39.0474 34.24C38.2474 34.624 37.6954 35.16 37.3914 35.848C37.0234 36.84 36.8394 38.168 36.8394 39.832C36.8394 41.496 37.1194 42.936 37.6794 44.152C38.2394 45.368 39.1114 46.064 40.2954 46.24L41.3514 46.264C41.8954 46.296 42.3194 46.312 42.6234 46.312C43.3754 46.312 44.0154 46.232 44.5434 46.072C45.0874 45.912 45.5114 45.616 45.8154 45.184C46.0234 45.008 46.1674 44.64 46.2474 44.08C46.3274 43.504 46.4074 42.624 46.4874 41.44C46.2474 41.392 45.9354 41.368 45.5514 41.368L44.6154 41.392C44.4234 41.408 44.1594 41.416 43.8234 41.416C43.6314 41.416 43.5114 41.408 43.4634 41.392V41.584C43.4634 42.208 43.3194 42.68 43.0314 43C42.7594 43.32 42.4234 43.48 42.0234 43.48C40.7914 43.48 40.1514 42.456 40.1034 40.408V39.976ZM43.9434 38.08C43.9434 38.128 43.8874 38.152 43.7754 38.152C43.6954 38.152 43.5354 38.144 43.2954 38.128C43.0554 38.112 42.7674 38.104 42.4314 38.104L40.8714 38.128C40.5674 38.128 40.3674 38.112 40.2714 38.08C40.1754 38.048 40.1274 37.976 40.1274 37.864C40.1274 36.632 40.8074 36.016 42.1674 36.016C42.4714 36.016 42.7514 36.096 43.0074 36.256C43.2954 36.4 43.5194 36.616 43.6794 36.904C43.8554 37.192 43.9434 37.496 43.9434 37.816V38.08ZM43.3674 36.928C43.1594 36.8 42.9194 36.736 42.6474 36.736C42.0874 36.736 41.6794 36.832 41.4234 37.024C41.1834 37.216 41.0154 37.504 40.9194 37.888L41.3754 37.864H42.4314L43.4634 37.888L43.7034 37.912V37.816C43.7034 37.448 43.5994 37.16 43.3914 36.952L43.3674 36.928Z" fill="black"/>
<path d="M10.104 31.552C10.792 32.592 11.288 33.792 11.592 35.152L11.568 35.128C11.696 35.512 11.776 36.048 11.808 36.736L11.736 38.104C11.704 39.464 11.616 40.496 11.472 41.2C11.136 42.176 10.696 43.096 10.152 43.96C9.624 44.824 9 45.704 8.28 46.6C6.744 46.648 5.104 46.672 3.36 46.672C2.944 46.688 2.36 46.696 1.608 46.696L1.536 46.192L1.128 46.216C0.84 44.12 0.696 41.44 0.696 38.176C0.696 36.816 0.704 35.792 0.72 35.104L0.744 31.84C0.744 30.8 0.736 30.024 0.72 29.512C0.72 29.48 0.728 29.456 0.744 29.44C0.776 29.36 0.832 29.28 0.912 29.2C1.328 29.088 1.744 29.016 2.16 28.984C2.592 28.936 3.096 28.912 3.672 28.912C4.168 28.912 4.544 28.92 4.8 28.936L5.904 28.96C6.32 28.96 6.632 28.952 6.84 28.936C7.48 29.128 8.112 29.48 8.736 29.992C9.36 30.488 9.824 31.008 10.128 31.552H10.104ZM6.12 29.2C5.608 29.2 5.216 29.192 4.944 29.176L3.744 29.152C2.64 29.152 1.736 29.24 1.032 29.416L0.96 29.512C0.976 30.024 0.984 30.792 0.984 31.816L0.96 35.08C0.944 35.784 0.936 36.848 0.936 38.272C0.936 39.872 0.96 41.28 1.008 42.496C1.072 43.712 1.184 44.872 1.344 45.976L1.368 45.952C4.168 45.952 6.272 45.928 7.68 45.88C8.416 44.968 9.032 44.112 9.528 43.312C10.04 42.512 10.44 41.672 10.728 40.792L10.752 40.744C10.912 39.896 11.008 38.752 11.04 37.312L11.088 36.232C11.04 35.368 10.872 34.496 10.584 33.616C10.296 32.736 9.912 31.928 9.432 31.192C9.144 30.712 8.76 30.288 8.28 29.92C7.816 29.552 7.328 29.304 6.816 29.176L6.12 29.2ZM6.048 40.816C5.776 40.864 5.496 40.888 5.208 40.888C4.84 40.888 4.576 40.816 4.416 40.672C4.384 39.936 4.368 39.368 4.368 38.968L4.392 37.36C4.408 37.024 4.416 36.544 4.416 35.92C4.416 35.552 4.4 35.064 4.368 34.456V34.36H4.44C4.728 34.312 5.032 34.288 5.352 34.288C6.312 34.288 6.976 34.64 7.344 35.344C7.712 36.032 7.896 36.84 7.896 37.768C7.896 38.488 7.672 39.2 7.224 39.904C7.064 40.144 6.88 40.36 6.672 40.552C6.464 40.728 6.272 40.816 6.096 40.816H6.048ZM7.032 39.784C7.448 39.16 7.656 38.488 7.656 37.768C7.656 37.416 7.592 36.992 7.464 36.496C7.336 35.984 7.16 35.544 6.936 35.176L6.696 35.056C6.312 35.024 6.024 35.008 5.832 35.008C5.688 35.008 5.44 35.024 5.088 35.056C5.12 35.664 5.136 36.168 5.136 36.568L5.112 38.416C5.08 39.248 5.064 39.864 5.064 40.264L5.088 40.648H5.208C5.384 40.648 5.552 40.64 5.712 40.624C5.872 40.592 5.992 40.576 6.072 40.576L6.12 40.6C6.168 40.6 6.256 40.552 6.384 40.456H6.36C6.6 40.312 6.824 40.08 7.032 39.76V39.784Z" fill="black"/>
</svg>
